<svg width="36" height="36" viewBox="0 0 36 36" fill="none" xmlns="http://www.w3.org/2000/svg">
<circle cx="18" cy="18" r="18" fill="#3C1F1B"/>
<mask id="path-2-inside-1_653_2277" fill="white">
<path fill-rule="evenodd" clip-rule="evenodd" d="M12.9788 27.4967C14.4352 27.7891 16.0001 27.573 17.3877 26.7718C20.4156 25.0236 21.4531 21.1518 19.7049 18.1239C17.9567 15.096 14.0849 14.0585 11.057 15.8067C9.20281 16.8772 8.09503 18.7441 7.91623 20.7258L6.63714 21.7991C5.36792 22.8641 5.20237 24.7564 6.26737 26.0256L7.83638 27.8955C8.90139 29.1647 10.7937 29.3302 12.0629 28.2652L12.9788 27.4967Z"/>
</mask>
<path fill-rule="evenodd" clip-rule="evenodd" d="M12.9788 27.4967C14.4352 27.7891 16.0001 27.573 17.3877 26.7718C20.4156 25.0236 21.4531 21.1518 19.7049 18.1239C17.9567 15.096 14.0849 14.0585 11.057 15.8067C9.20281 16.8772 8.09503 18.7441 7.91623 20.7258L6.63714 21.7991C5.36792 22.8641 5.20237 24.7564 6.26737 26.0256L7.83638 27.8955C8.90139 29.1647 10.7937 29.3302 12.0629 28.2652L12.9788 27.4967Z" fill="#F7C64E"/>
<path d="M12.9788 27.4967L13.1756 26.5163L12.7042 26.4217L12.336 26.7307L12.9788 27.4967ZM7.91623 20.7258L8.55902 21.4919L8.87511 21.2266L8.91219 20.8157L7.91623 20.7258ZM6.63714 21.7991L7.27993 22.5651L7.27993 22.5651L6.63714 21.7991ZM6.26737 26.0256L5.50133 26.6684L5.50133 26.6684L6.26737 26.0256ZM7.83638 27.8955L7.07034 28.5383L7.07034 28.5383L7.83638 27.8955ZM12.0629 28.2652L11.4201 27.4992L11.4201 27.4992L12.0629 28.2652ZM16.8877 25.9058C15.7187 26.5807 14.4028 26.7626 13.1756 26.5163L12.782 28.4772C14.4677 28.8156 16.2815 28.5652 17.8877 27.6378L16.8877 25.9058ZM18.8389 18.6239C20.3109 21.1736 19.4373 24.4338 16.8877 25.9058L17.8877 27.6378C21.3939 25.6135 22.5953 21.1301 20.5709 17.6239L18.8389 18.6239ZM11.557 16.6727C14.1066 15.2007 17.3668 16.0743 18.8389 18.6239L20.5709 17.6239C18.5466 14.1177 14.0632 12.9164 10.557 14.9407L11.557 16.6727ZM8.91219 20.8157C9.06301 19.144 9.99641 17.5737 11.557 16.6727L10.557 14.9407C8.40921 16.1807 7.12705 18.3441 6.92028 20.636L8.91219 20.8157ZM7.27993 22.5651L8.55902 21.4919L7.27344 19.9598L5.99436 21.0331L7.27993 22.5651ZM7.03342 25.3828C6.32342 24.5367 6.43378 23.2751 7.27993 22.5651L5.99436 21.0331C4.30206 22.4531 4.08132 24.9761 5.50133 26.6684L7.03342 25.3828ZM8.60243 27.2527L7.03342 25.3828L5.50133 26.6684L7.07034 28.5383L8.60243 27.2527ZM11.4201 27.4992C10.5739 28.2092 9.31243 28.0988 8.60243 27.2527L7.07034 28.5383C8.49035 30.2306 11.0134 30.4513 12.7057 29.0313L11.4201 27.4992ZM12.336 26.7307L11.4201 27.4992L12.7057 29.0313L13.6216 28.2628L12.336 26.7307Z" fill="#F7C64E" mask="url(#path-2-inside-1_653_2277)"/>
<path d="M20.6587 8.64136L22.018 14.9976L23.3773 21.3539" stroke="#F7C64E" stroke-width="1.5" stroke-linecap="round"/>
<path d="M28.0361 17.4536L22.018 14.9975L16 12.5413" stroke="#F7C64E" stroke-width="1.5" stroke-linecap="round"/>
</svg>
