<?xml version="1.0" encoding="UTF-8"?>
<svg id="Layer_1" data-name="Layer 1" xmlns="http://www.w3.org/2000/svg" viewBox="0 0 867 870">
  <defs>
    <style>
      .cls-1 {
        fill: #3c1f1b;
      }

      .cls-1, .cls-2 {
        stroke-width: 0px;
      }

      .cls-2 {
        fill: #fff6e7;
      }
    </style>
  </defs>
  <rect class="cls-1" width="867" height="870"/>
  <rect class="cls-2" x="86.14" y="706.52" width="401.92" height="11.81"/>
  <rect class="cls-2" x="86.14" y="730.22" width="401.92" height="11.82"/>
  <polygon class="cls-2" points="147.63 115.43 147.63 208.75 136.83 208.75 108.97 164.19 99.04 147.1 99.04 208.75 84.46 208.75 84.46 115.43 96.42 115.43 123.56 160.83 133.04 177.93 133.04 115.43 147.63 115.43"/>
  <polygon class="cls-2" points="147.63 115.43 147.57 115.43 147.57 208.69 136.86 208.69 109.03 164.16 98.98 146.87 98.98 208.69 84.53 208.69 84.53 115.49 96.39 115.49 123.51 160.86 133.1 178.17 133.1 115.49 147.63 115.49 147.63 115.43 147.57 115.43 147.63 115.43 147.63 115.37 132.98 115.37 132.98 177.69 123.62 160.8 96.46 115.37 84.4 115.37 84.4 208.81 99.11 208.81 99.11 147.33 108.92 164.22 136.8 208.81 147.69 208.81 147.69 115.37 147.63 115.37 147.63 115.43"/>
  <path class="cls-2" d="M201.02,115.43h-16.33l-25.68,93.32h15.17l5.98-24.1h24.94l6.27,24.1h15.61l-25.97-93.32ZM183.23,172.32l9.19-36.71,9.48,36.71h-18.67Z"/>
  <path class="cls-2" d="M201.02,115.43v-.06h-16.38l-25.71,93.45h15.3l5.98-24.1h24.85l6.27,24.1h15.74l-26-93.45h-.05v.06l-.06.02,25.95,93.24h-15.48l-6.27-24.1h-25.04l-5.98,24.1h-15.04l25.64-93.2h16.29s0-.06,0-.06l-.06.02.06-.02ZM183.23,172.32l.06.02,9.13-36.48,9.4,36.4h-18.59v.06l.06.02-.06-.02v.06h18.75l-9.56-37.03-9.27,37.03h.08v-.06Z"/>
  <polygon class="cls-2" points="294.11 115.43 294.11 128.88 270.48 128.88 270.48 208.75 255.01 208.75 255.01 128.88 231.38 128.88 231.38 115.43 294.11 115.43"/>
  <polygon class="cls-2" points="294.11 115.43 294.04 115.43 294.04 128.82 270.41 128.82 270.41 208.69 255.07 208.69 255.07 128.82 231.44 128.82 231.44 115.49 294.11 115.49 294.11 115.43 294.04 115.43 294.11 115.43 294.11 115.37 231.31 115.37 231.31 128.94 254.95 128.94 254.95 208.81 270.54 208.81 270.54 128.94 294.17 128.94 294.17 115.37 294.11 115.37 294.11 115.43"/>
  <rect class="cls-2" x="306.51" y="115.43" width="15.46" height="93.32"/>
  <polygon class="cls-2" points="321.97 115.43 321.91 115.43 321.91 208.69 306.57 208.69 306.57 115.49 321.97 115.49 321.97 115.43 321.91 115.43 321.97 115.43 321.97 115.37 306.44 115.37 306.44 208.81 322.03 208.81 322.03 115.37 321.97 115.37 321.97 115.43"/>
  <path class="cls-2" d="M371.28,113.19c-21.74,0-31.36,13.03-31.36,30.13v37.55c0,17.24,9.63,30.27,31.36,30.27s31.36-13.03,31.36-30.27v-37.55c0-17.09-9.48-30.13-31.36-30.13ZM387.18,181.85c0,9.53-4.96,16.25-15.9,16.25s-15.76-6.73-15.76-16.25v-39.52c0-9.52,4.96-16.25,15.76-16.25s15.9,6.73,15.9,16.25v39.52Z"/>
  <path class="cls-2" d="M371.28,113.19v-.06c-10.88,0-18.74,3.26-23.88,8.67-5.14,5.41-7.55,12.96-7.55,21.52v37.55c0,8.63,2.41,16.21,7.55,21.64,5.14,5.43,13,8.69,23.88,8.69,10.95,0,18.81-3.26,23.93-8.69,5.12-5.43,7.49-13.01,7.49-21.64v-37.55c0-8.56-2.37-16.11-7.49-21.52-5.12-5.41-12.98-8.67-23.93-8.67v.12c21.85,0,31.29,12.99,31.3,30.06v37.55c0,17.21-9.44,30.2-31.3,30.21-21.71,0-31.3-12.99-31.3-30.21v-37.55c0-17.07,9.59-30.06,31.3-30.06v-.06ZM387.18,181.85h-.06c0,9.51-4.93,16.19-15.84,16.19-10.77,0-15.69-6.68-15.69-16.19v-39.52c0-9.5,4.92-16.19,15.69-16.19,10.91,0,15.83,6.69,15.84,16.19v39.52h.12v-39.52c0-4.77-1.24-8.85-3.86-11.74-2.62-2.89-6.62-4.58-12.1-4.58-5.41,0-9.37,1.69-11.97,4.58-2.6,2.89-3.84,6.97-3.84,11.74v39.52c0,4.77,1.24,8.86,3.84,11.74,2.6,2.89,6.56,4.58,11.97,4.57,5.48,0,9.48-1.69,12.1-4.57,2.62-2.89,3.86-6.97,3.86-11.74h-.06Z"/>
  <polygon class="cls-2" points="483.91 115.43 483.91 208.75 473.12 208.75 445.26 164.19 435.33 147.1 435.33 208.75 420.75 208.75 420.75 115.43 432.71 115.43 459.85 160.83 469.33 177.93 469.33 115.43 483.91 115.43"/>
  <polygon class="cls-2" points="483.91 115.43 483.85 115.43 483.85 208.69 473.15 208.69 445.31 164.16 435.27 146.87 435.27 208.69 420.81 208.69 420.81 115.49 432.68 115.49 459.79 160.86 469.39 178.17 469.39 115.49 483.91 115.49 483.91 115.43 483.85 115.43 483.91 115.43 483.91 115.37 469.27 115.37 469.27 177.69 459.9 160.8 432.75 115.37 420.69 115.37 420.69 208.81 435.39 208.81 435.39 147.33 445.2 164.22 473.08 208.81 483.97 208.81 483.97 115.37 483.91 115.37 483.91 115.43"/>
  <path class="cls-2" d="M537.31,115.43h-16.33l-25.67,93.32h15.17l5.99-24.1h24.94l6.27,24.1h15.61l-25.97-93.32ZM519.51,172.32l9.19-36.71,9.49,36.71h-18.67Z"/>
  <path class="cls-2" d="M537.31,115.43v-.06h-16.38l-25.71,93.45h15.3l5.99-24.1h24.84l6.27,24.1h15.74l-26-93.45h-.05v.06l-.06.02,25.95,93.24h-15.48l-6.27-24.1h-25.04l-5.99,24.1h-15.04l25.64-93.2h16.29v-.06l-.06.02.06-.02ZM519.51,172.32l.06.02,9.13-36.48,9.41,36.4h-18.59v.06l.06.02-.06-.02v.06h18.76l-9.57-37.03-9.27,37.03h.08v-.06Z"/>
  <polygon class="cls-2" points="626.45 195.44 626.45 208.75 574.81 208.75 574.81 115.43 590.27 115.43 590.27 195.44 626.45 195.44"/>
  <polygon class="cls-2" points="626.45 195.44 626.38 195.44 626.38 208.69 574.87 208.69 574.87 115.49 590.21 115.49 590.21 195.51 626.45 195.51 626.45 195.44 626.38 195.44 626.45 195.44 626.45 195.38 590.33 195.38 590.33 115.37 574.75 115.37 574.75 208.81 626.51 208.81 626.51 195.38 626.45 195.38 626.45 195.44"/>
  <polygon class="cls-2" points="99.48 241.33 99.48 265.85 125.12 265.85 125.12 278.46 99.48 278.46 99.48 308.03 135.06 308.03 135.06 321.34 84.62 321.34 84.62 228.02 135.06 228.02 135.06 241.33 99.48 241.33"/>
  <polygon class="cls-2" points="99.48 241.33 99.41 241.33 99.41 265.92 125.05 265.92 125.05 278.4 99.41 278.4 99.41 308.1 135 308.1 135 321.28 84.68 321.28 84.68 228.08 135 228.08 135 241.27 99.41 241.27 99.41 241.33 99.48 241.33 99.48 241.39 135.12 241.39 135.12 227.96 84.56 227.96 84.56 321.41 135.12 321.41 135.12 307.97 99.54 307.97 99.54 278.53 125.18 278.53 125.18 265.79 99.54 265.79 99.54 241.33 99.48 241.33 99.48 241.39 99.48 241.33"/>
  <polygon class="cls-2" points="210.45 228.02 210.45 321.34 200.09 321.34 173.32 276.78 163.79 259.69 163.79 321.34 149.78 321.34 149.78 228.02 161.27 228.02 187.33 273.42 196.44 290.52 196.44 228.02 210.45 228.02"/>
  <polygon class="cls-2" points="210.45 228.02 210.39 228.02 210.39 321.28 200.12 321.28 173.37 276.75 173.32 276.78 173.37 276.75 163.72 259.45 163.72 321.28 149.84 321.28 149.84 228.08 161.23 228.08 187.28 273.45 196.5 290.77 196.5 228.08 210.45 228.08 210.45 228.02 210.39 228.02 210.45 228.02 210.45 227.96 196.38 227.96 196.38 290.27 187.39 273.39 161.3 227.96 149.71 227.96 149.71 321.41 163.85 321.41 163.85 259.93 173.27 276.82 173.27 276.82 200.05 321.41 210.51 321.41 210.51 227.96 210.45 227.96 210.45 228.02"/>
  <path class="cls-2" d="M259.64,228.02h-30.55v93.32h30.55c19.9,0,28.86-12.33,28.86-27.46v-38.4c0-15.13-8.96-27.46-28.86-27.46ZM273.65,292.48c0,9.67-4.76,15.56-15.27,15.56h-14.43v-66.7h14.43c10.52,0,15.27,5.89,15.27,15.7v35.45Z"/>
  <path class="cls-2" d="M259.64,228.02v-.06h-30.61v93.45h30.61c9.96,0,17.2-3.09,21.94-8.08,4.74-4.99,6.99-11.87,6.99-19.45v-38.4c0-7.58-2.24-14.46-6.99-19.45-4.74-4.99-11.98-8.08-21.94-8.08v.12c19.87,0,28.79,12.3,28.8,27.4v38.4c0,15.11-8.93,27.4-28.8,27.4h-30.49v-93.2h30.49s0-.06,0-.06ZM273.65,292.48h-.06c0,9.65-4.72,15.49-15.21,15.49h-14.37v-66.58h14.37c10.49,0,15.2,5.85,15.21,15.64v35.45h.12v-35.45c0-4.91-1.19-8.86-3.71-11.57-2.52-2.71-6.36-4.19-11.63-4.19h-14.5v66.83h14.5c5.27,0,9.11-1.48,11.63-4.17,2.52-2.7,3.71-6.6,3.71-11.45h-.06Z"/>
  <path class="cls-2" d="M334.61,225.78c-20.89,0-30.13,13.03-30.13,30.13v37.56c0,17.24,9.24,30.27,30.13,30.27s30.13-13.03,30.13-30.27v-37.56c0-17.09-9.11-30.13-30.13-30.13ZM349.88,294.44c0,9.53-4.77,16.25-15.27,16.25s-15.14-6.73-15.14-16.25v-39.52c0-9.52,4.77-16.25,15.14-16.25s15.27,6.73,15.27,16.25v39.52Z"/>
  <path class="cls-2" d="M334.61,225.78v-.06c-10.46,0-18.01,3.26-22.94,8.67-4.93,5.41-7.25,12.96-7.25,21.52v37.56c0,8.63,2.31,16.21,7.25,21.64,4.93,5.43,12.49,8.69,22.94,8.69,10.52,0,18.07-3.26,22.99-8.69,4.92-5.43,7.2-13.01,7.2-21.64v-37.56c0-8.56-2.28-16.11-7.2-21.52-4.92-5.41-12.47-8.67-22.99-8.67v.12c20.99,0,30.06,12.99,30.06,30.06v37.56c0,17.21-9.08,30.2-30.06,30.21-20.86,0-30.06-12.99-30.06-30.21v-37.56c0-17.07,9.21-30.06,30.06-30.06v-.06ZM349.88,294.44h-.06c0,9.51-4.74,16.19-15.21,16.19-10.34,0-15.07-6.68-15.07-16.19v-39.52c0-9.5,4.74-16.19,15.07-16.19,10.47,0,15.2,6.69,15.21,16.19v39.52h.12v-39.52c0-4.77-1.19-8.85-3.71-11.74-2.52-2.89-6.36-4.58-11.62-4.58-5.2,0-9,1.69-11.5,4.58-2.5,2.89-3.69,6.97-3.69,11.74v39.52c0,4.77,1.19,8.85,3.69,11.74,2.5,2.89,6.31,4.58,11.5,4.58,5.27,0,9.11-1.69,11.62-4.58,2.52-2.89,3.71-6.97,3.71-11.74h-.06Z"/>
  <polygon class="cls-2" points="471.93 228.02 452.31 321.34 437.73 321.34 423.72 255.21 408.87 321.34 394.3 321.34 374.96 228.02 390.23 228.02 401.86 297.94 417.14 228.02 431.01 228.02 445.3 297.94 457.07 228.02 471.93 228.02"/>
  <polygon class="cls-2" points="471.93 228.02 471.86 228.01 452.26 321.28 437.78 321.28 423.73 254.91 408.82 321.28 394.35 321.28 375.04 228.08 390.18 228.08 401.85 298.28 417.19 228.08 430.96 228.08 445.31 298.29 457.13 228.08 471.93 228.08 471.93 228.02 471.86 228.01 471.93 228.02 471.93 227.96 457.02 227.96 445.3 297.6 431.06 227.96 417.09 227.96 401.87 297.61 390.29 227.96 374.88 227.96 394.25 321.41 408.92 321.41 423.72 255.5 437.68 321.41 452.36 321.41 472 227.96 471.93 227.96 471.93 228.02"/>
  <polygon class="cls-2" points="563.01 228.02 563.01 321.34 549.69 321.34 549.69 247.64 545.07 266.14 530.22 321.34 515.51 321.34 501.08 266.14 496.45 247.64 496.45 321.34 483.14 321.34 483.14 228.02 503.74 228.02 518.73 286.59 523.22 305.23 527.69 286.45 542.42 228.02 563.01 228.02"/>
  <polygon class="cls-2" points="563.01 228.02 562.94 228.02 562.94 321.28 549.76 321.28 549.76 247.13 545.01 266.12 530.17 321.28 515.56 321.28 501.14 266.12 496.39 247.14 496.39 321.28 483.2 321.28 483.2 228.08 503.69 228.08 518.67 286.61 523.22 305.5 527.76 286.46 542.46 228.08 563.01 228.08 563.01 228.02 562.94 228.02 563.01 228.02 563.01 227.96 542.37 227.96 527.63 286.43 523.22 304.96 518.79 286.58 503.79 227.96 483.07 227.96 483.07 321.41 496.51 321.41 496.51 248.15 501.02 266.15 515.46 321.41 530.27 321.41 545.13 266.15 549.63 248.15 549.63 321.41 563.07 321.41 563.07 227.96 563.01 227.96 563.01 228.02"/>
  <polygon class="cls-2" points="596.64 241.33 596.64 265.85 622.28 265.85 622.28 278.46 596.64 278.46 596.64 308.03 632.23 308.03 632.23 321.34 581.79 321.34 581.79 228.02 632.23 228.02 632.23 241.33 596.64 241.33"/>
  <polygon class="cls-2" points="596.64 241.33 596.58 241.33 596.58 265.92 622.22 265.92 622.22 278.4 596.58 278.4 596.58 308.1 632.16 308.1 632.16 321.28 581.85 321.28 581.85 228.08 632.16 228.08 632.16 241.27 596.58 241.27 596.58 241.33 596.64 241.33 596.64 241.39 632.29 241.39 632.29 227.96 581.72 227.96 581.72 321.41 632.29 321.41 632.29 307.97 596.7 307.97 596.7 278.53 622.34 278.53 622.34 265.79 596.7 265.79 596.7 241.33 596.64 241.33 596.64 241.39 596.64 241.33"/>
  <polygon class="cls-2" points="707.48 228.02 707.48 321.34 697.11 321.34 670.34 276.78 660.82 259.69 660.82 321.34 646.81 321.34 646.81 228.02 658.3 228.02 684.36 273.42 693.46 290.52 693.46 228.02 707.48 228.02"/>
  <polygon class="cls-2" points="707.48 228.02 707.42 228.02 707.42 321.28 697.14 321.28 670.4 276.75 660.76 259.45 660.76 321.28 646.87 321.28 646.87 228.08 658.26 228.08 684.31 273.45 693.53 290.77 693.53 228.08 707.48 228.08 707.48 228.02 707.42 228.02 707.48 228.02 707.48 227.96 693.4 227.96 693.4 290.27 684.42 273.39 658.33 227.96 646.74 227.96 646.74 321.41 660.88 321.41 660.88 259.93 670.29 276.82 697.07 321.41 707.55 321.41 707.55 227.96 707.48 227.96 707.48 228.02"/>
  <polygon class="cls-2" points="779.64 228.02 779.64 241.47 756.94 241.47 756.94 321.34 742.09 321.34 742.09 241.47 719.39 241.47 719.39 228.02 779.64 228.02"/>
  <polygon class="cls-2" points="779.64 228.02 779.58 228.02 779.58 241.41 756.88 241.41 756.88 321.28 742.15 321.28 742.15 241.41 719.45 241.41 719.45 228.08 779.64 228.08 779.64 228.02 779.58 228.02 779.64 228.02 779.64 227.96 719.33 227.96 719.33 241.53 742.02 241.53 742.02 321.41 757 321.41 757 241.53 779.7 241.53 779.7 227.96 779.64 227.96 779.64 228.02"/>
  <path class="cls-2" d="M158.17,623.28v10.95h-41.97v7.73h-8.26v-7.73h-2.9c-11.27,0-18.68-5.47-18.68-17.28v-4.18h8.48v3.11c0,5.69,3.22,7.83,8.91,7.83h4.18v-10.2h8.26v9.77h41.97Z"/>
  <path class="cls-2" d="M158.17,623.28h-.06v10.88h-41.97v7.73h-8.14v-7.73s-2.96,0-2.96,0c-11.25,0-18.61-5.44-18.61-17.22v-4.12h8.35v3.05c0,2.85.81,4.84,2.34,6.1,1.53,1.26,3.78,1.8,6.63,1.8h4.25v-10.2h8.14v9.77h42.03v-.06h-.06.06v-.06h-41.9v-9.77s-8.39,0-8.39,0v10.2h-4.12c-5.68-.01-8.84-2.11-8.85-7.77v-3.18h-8.6v4.25c0,5.92,1.86,10.26,5.13,13.11,3.28,2.86,7.96,4.23,13.61,4.23h2.84v7.73h8.39v-7.73h41.97s0-11.07,0-11.07h-.06v.06Z"/>
  <path class="cls-2" d="M138.53,563.83h-10.95c-12.88,0-20.71,8.8-20.71,21.36s7.83,21.46,20.71,21.46h10.95c12.88,0,20.5-8.8,20.5-21.46s-7.62-21.36-20.5-21.36ZM139.49,596.02h-13.09c-6.76,0-11.16-3.86-11.16-10.84s4.4-10.73,11.16-10.73h13.09c6.87,0,11.16,3.86,11.16,10.73s-4.29,10.84-11.16,10.84Z"/>
  <path class="cls-2" d="M138.53,563.83v-.06h-10.95c-6.45,0-11.65,2.21-15.23,5.99-3.58,3.78-5.54,9.14-5.54,15.43,0,6.34,1.96,11.73,5.54,15.52,3.58,3.8,8.78,6,15.23,6h10.95c6.45,0,11.6-2.21,15.12-6,3.53-3.8,5.44-9.18,5.44-15.52,0-6.29-1.91-11.65-5.44-15.43-3.53-3.78-8.67-5.99-15.12-5.99v.12c12.85,0,20.43,8.76,20.43,21.3,0,12.64-7.59,21.4-20.43,21.4h-10.95c-12.85,0-20.64-8.76-20.65-21.4,0-12.53,7.8-21.29,20.65-21.3h10.95v-.06ZM139.49,596.02v-.06h-13.09c-6.74,0-11.09-3.83-11.1-10.77,0-6.84,4.36-10.66,11.1-10.67h13.09c6.85,0,11.09,3.83,11.1,10.67,0,6.95-4.25,10.77-11.1,10.77v.12c3.45,0,6.26-.97,8.2-2.82,1.95-1.85,3.02-4.58,3.02-8.08,0-3.45-1.08-6.15-3.02-7.99-1.95-1.84-4.75-2.81-8.2-2.81h-13.09c-3.39,0-6.2.97-8.16,2.81-1.96,1.84-3.07,4.54-3.06,7.99,0,3.5,1.11,6.23,3.06,8.08,1.96,1.85,4.77,2.82,8.16,2.82h13.09v-.06Z"/>
  <path class="cls-2" d="M158.17,540.87v10.95h-50.23v-9.23l10.95-.64c-10.2-3.54-12.66-8.91-11.27-18.14h10.19c-2.04,12.24,2.04,17.06,7.62,17.06h32.74Z"/>
  <path class="cls-2" d="M158.17,540.87h-.06v10.88h-50.1v-9.11l11.21-.65-.3-.1c-8.48-2.95-11.58-7.13-11.58-13.78,0-1.33.12-2.76.36-4.3h-.06s0,.05,0,.05h10.19v-.06h-.06c-.36,2.18-.53,4.13-.53,5.86,0,3.98.89,6.8,2.37,8.62,1.48,1.82,3.54,2.65,5.85,2.64h32.74v-.06h-.06.06v-.06h-32.74c-4.55,0-8.09-3.21-8.09-11.14,0-1.72.17-3.67.53-5.85v-.07s-10.31,0-10.31,0v.05c-.24,1.54-.37,2.98-.37,4.31,0,6.69,3.16,10.94,11.67,13.89l.02-.06v-.06s-11.01.64-11.01.64v9.35h50.35v-11.07h-.06v.06Z"/>
  <path class="cls-2" d="M158.17,472.2v11.81c-4.08,2.68-8.91,3.54-16.21,3.54h-25.76v7.83h-8.26v-8.15h-9.23l-3.43-10.63h12.66v-9.45h8.26v9.45h25.76c6.44,0,11.7-1.18,16.21-4.4Z"/>
  <path class="cls-2" d="M158.17,472.2h-.06v11.81h.06l-.03-.05c-4.07,2.67-8.88,3.53-16.17,3.53h-25.82v7.83h-8.14v-8.15h-9.25l-3.39-10.5h12.64v-9.45h8.14v9.45h25.82c6.45,0,11.72-1.18,16.24-4.41l-.04-.05h-.06.06l-.04-.05c-4.5,3.21-9.74,4.39-16.17,4.39h-25.7v-9.45s-8.39,0-8.39,0v9.45h-12.69l3.47,10.75h9.21v8.15h8.39v-7.83h25.7c7.3,0,12.14-.86,16.24-3.55l.03-.02v-11.96l-.1.07.04.05Z"/>
  <path class="cls-2" d="M115.02,434.53c0,7.19,9.45,12.13,15.35,12.13h27.8v10.84h-71.48v-10.84h31.87c-8.15-3.43-11.7-10.2-11.7-16.64,0-9.12,6.98-14.7,16.85-14.7h34.45v10.95h-33.92c-5.9,0-9.23,3.01-9.23,8.26Z"/>
  <path class="cls-2" d="M115.02,434.53h-.06c.01,7.25,9.48,12.19,15.41,12.19h27.74v10.72h-71.35v-10.72s32.12,0,32.12,0l-.29-.12c-8.13-3.43-11.66-10.16-11.66-16.58,0-9.08,6.94-14.63,16.79-14.64h34.39v10.82s-33.85,0-33.85,0c-2.96,0-5.29.75-6.87,2.18-1.59,1.42-2.42,3.51-2.42,6.15h.12c0-5.22,3.29-8.19,9.17-8.2h33.98v-11.07h-34.51c-4.95,0-9.18,1.4-12.17,3.95-2.99,2.55-4.75,6.24-4.75,10.82,0,6.46,3.56,13.25,11.74,16.7l.02-.06v-.06h-31.93v10.97h71.6v-10.97h-27.86c-2.93,0-6.76-1.23-9.85-3.36-3.09-2.13-5.43-5.14-5.43-8.71h-.06Z"/>
  <path class="cls-2" d="M141.74,362.32h-.22v9.55h1.07c4.4,0,8.05,3.54,8.05,10.09,0,7.19-4.18,11.38-10.09,11.38h-6.87v-31.02h-6.23c-12.23,0-20.61,7.3-20.61,20.5s8.48,21.04,20.5,21.04h11.48c12.34,0,20.18-8.37,20.18-21.25,0-11.27-6.44-20.28-17.28-20.28ZM128.12,393.33h-3.22c-5.58,0-9.66-3.97-9.66-10.63s4.29-10.52,9.66-10.52h3.22v21.14Z"/>
  <path class="cls-2" d="M141.74,362.32v-.06h-.28v9.67h1.13c4.37,0,7.98,3.5,7.99,10.03,0,7.17-4.15,11.31-10.02,11.31h-6.8v-31.02s-6.29,0-6.29,0c-6.13,0-11.3,1.83-14.93,5.32-3.64,3.49-5.74,8.63-5.74,15.24,0,6.62,2.12,11.89,5.76,15.51,3.64,3.62,8.78,5.59,14.8,5.59h11.48c6.19,0,11.25-2.1,14.76-5.82,3.51-3.72,5.48-9.05,5.48-15.5,0-5.65-1.61-10.73-4.59-14.4-2.97-3.68-7.31-5.94-12.75-5.94v.12c10.8,0,17.21,8.97,17.22,20.22,0,12.85-7.8,21.19-20.11,21.19h-11.48c-11.99,0-20.43-7.8-20.44-20.98,0-13.17,8.34-20.43,20.54-20.43h6.16v31.02h6.93c2.96,0,5.51-1.05,7.3-3.01,1.8-1.96,2.85-4.82,2.85-8.43,0-3.29-.91-5.82-2.39-7.54-1.47-1.72-3.5-2.61-5.72-2.61h-1.01v-9.42h.15s0-.06,0-.06ZM128.12,393.33v-.06h-3.22c-5.54,0-9.59-3.94-9.59-10.56,0-6.52,4.27-10.45,9.59-10.45h3.16v21.08h.06v-.06.06h.06v-21.21h-3.29c-2.7,0-5.13,1-6.88,2.82-1.76,1.82-2.84,4.47-2.83,7.76,0,3.34,1.02,6.01,2.75,7.85,1.73,1.84,4.16,2.84,6.96,2.84h3.29v-.06h-.06Z"/>
  <path class="cls-2" d="M296.66,354.68h-63.52l-41.63,285.84h49.78l4.73-45.92h32.62l3.86,45.92h55.36l-41.2-285.84ZM252.02,549.96l12.45-111.16,9.44,111.16h-21.89Z"/>
  <path class="cls-2" d="M483.36,592.88v-55.36c0-14.17-9.44-27.47-23.6-35.19,14.17-8.16,22.75-21.03,22.75-35.2v-57.08c0-38.2-27.89-55.36-54.93-55.36h-76.4v285.84h55.37v-116.31h12.87c7.73,0,11.59,7.72,11.59,15.02v57.08c0,18.03,4.73,44.21,13.3,44.21h46.35v-1.29c-3.86-13.73-7.3-28.33-7.3-46.35ZM429.71,468.84c0,9.45-3.43,12.88-9.44,12.88h-13.73v-80.69h13.73c6.01,0,9.44,3.43,9.44,12.88v54.93Z"/>
  <polygon class="cls-2" points="630.58 354.68 630.58 404.9 591.1 404.9 591.1 640.52 536.16 640.52 536.16 404.9 496.67 404.9 496.67 354.68 630.58 354.68"/>
  <path class="cls-2" d="M773.08,574.8c0,44.52-28.83,71.23-66.57,71.23-41.98,0-66.99-24.59-66.99-66.57v-24.6h47.06v26.29c0,11.45,5.94,19.08,17.39,19.08s16.53-6.78,16.53-18.66c0-22.9-13.57-40.28-32.65-64.03-21.19-23.74-47.06-57.66-47.06-92.86,0-38.58,22.48-71.66,68.27-71.66,36.46,0,61.06,26.29,61.06,66.15v24.59h-47.06v-27.98c0-10.18-5.93-16.11-13.99-16.11s-15.69,5.51-15.69,16.53c0,27.14,13.57,39.01,33.07,64.88,22.9,27.56,46.64,57.24,46.64,93.71Z"/>
  <path class="cls-2" d="M554.73,739.82v-26.83c0-9.02-4.5-15.67-14.81-15.67s-15.03,6.23-15.03,14.49v3.22h10.3v-3.76c0-3.11,1.08-4.72,4.18-4.72s4.4,1.72,4.4,4.51v7.4c-12.02,3.01-20.71,6.98-20.71,17.39v1.5c0,8.37,4.94,13.2,11.7,13.2,5.05,0,9.01-2.25,11.48-6.55,1.08,4.62,4.18,6.55,8.38,6.55h2.68v-8.05c-1.82-.1-2.57-.97-2.57-2.68ZM543.78,736.7c0,3.11-2.57,5.37-5.69,5.37-2.79,0-4.29-2.04-4.29-4.83v-2.89c0-4.73,3.22-7.3,9.98-8.8v11.16Z"/>
  <path class="cls-2" d="M586.92,697.75v11.7c-8.91-1.29-12.02,1.82-12.02,6.44v33.81h-11.27v-51.52h9.56l.75,8.8c2.04-7.73,6.66-10.52,12.99-9.23Z"/>
  <path class="cls-2" d="M606.77,707.41v26.51c0,6.33.53,11.27,2.68,15.78h-11.59c-1.83-4.08-2.47-8.48-2.47-15.78v-26.51h-5.8v-9.23h6.33v-9.02l10.85-2.89v11.91h6.87v9.23h-6.87Z"/>
  <path class="cls-2" d="M648.3,735.95c0,7.51-4.94,14.6-15.24,14.6s-15.67-6.12-15.67-15.03v-2.47h9.66v2.79c0,4.18,2.14,5.9,5.58,5.9s5.37-1.5,5.37-4.83c0-4.61-3.32-6.44-9.77-10.41-6.12-3.32-10.2-7.62-10.2-14.81,0-8.91,6.34-14.38,15.03-14.38,9.55,0,14.81,6.01,14.81,14.6v1.93h-9.33v-2.58c0-3-1.72-4.83-5.26-4.83-3.11,0-4.71,1.5-4.71,4.29,0,3.33,2.25,5.37,7.72,8.59,6.76,3.65,12.02,7.94,12.02,16.63Z"/>
  <rect class="cls-2" x="654.95" y="736.06" width="10.3" height="13.63"/>
  <path class="cls-2" d="M709.14,696.89c0-1.07,0-2.15-.33-4.29h-8.15c0,3.22-.97,5.58-5.48,5.58-.97,0-2.79-.86-6.12-.86-8.8,0-15.57,6.55-15.57,15.03v3.32c0,5.58,2.37,11.06,6.76,12.77-4.28.65-7.62,4.51-7.62,8.16,0,3.22,2.04,6.33,6.01,7.73-4.29,1.39-6.65,4.72-6.65,8.37v2.36c0,7.51,7.51,12.45,17.6,12.45,11.05,0,17.49-6.12,17.49-14.92v-2.47c0-7.72-5.05-12.77-16.53-12.77-6.87,0-8.79-1.29-8.79-3.43,0-1.83,1.39-3.54,3.75-3.54.76.22,2.68.32,3.54.32,9.44,0,15.67-6.12,15.67-14.7v-3.76c0-3.75-1.61-6.97-4.4-9.66,1.29.64,2.36.86,3.43.86,2.9,0,5.37-2.25,5.37-6.55ZM682.31,750.87c0-3,2.36-5.04,7.41-5.04,5.47,0,7.3,1.93,7.3,4.94v2.68c0,3-2.15,5.26-7.3,5.26s-7.41-2.15-7.41-5.15v-2.69ZM694.11,717.39c0,3-1.93,5.37-5.04,5.37s-5.05-2.36-5.05-5.37v-6.01c0-3.11,1.83-5.48,5.05-5.48s5.04,2.36,5.04,5.48v6.01Z"/>
  <path class="cls-2" d="M728.13,697.32c-9.45,0-15.88,6.44-15.88,16.63v20.07c0,10.31,6.44,16.53,15.88,16.53s15.78-6.22,15.78-16.53v-20.07c0-10.19-6.44-16.63-15.78-16.63ZM732.96,736.17c0,3.11-1.93,5.26-4.83,5.26-3.11,0-4.83-2.15-4.83-5.26v-24.36c0-3.11,1.72-5.37,4.83-5.37,2.9,0,4.83,2.25,4.83,5.37v24.36Z"/>
  <polygon class="cls-2" points="782.54 698.18 770.3 749.69 760.43 749.69 748.19 698.18 759.25 698.18 764.08 723.72 765.69 733.59 767.29 723.72 771.91 698.18 782.54 698.18"/>
</svg>