<svg width="39" height="39" viewBox="0 0 39 39" fill="none" xmlns="http://www.w3.org/2000/svg">
<circle cx="18" cy="20.3586" r="18" fill="#F7C64E"/>
<mask id="mask0_375_2300" style="mask-type:alpha" maskUnits="userSpaceOnUse" x="14" y="-7" width="31" height="37">
<path d="M14.621 22.8371L44.1758 29.1429L15.5417 -6.2172L14.621 22.8371Z" fill="#F7C64E"/>
</mask>
<g mask="url(#mask0_375_2300)">
<circle cx="14.6209" cy="22.8371" r="18" transform="rotate(51 14.6209 22.8371)" fill="#3C1F1B"/>
<circle cx="14.6206" cy="22.8371" r="16" transform="rotate(51 14.6206 22.8371)" fill="#F7C64E"/>
<circle cx="14.6209" cy="22.8371" r="14" transform="rotate(51 14.6209 22.8371)" fill="#3C1F1B"/>
<circle cx="14.6209" cy="22.8371" r="14" transform="rotate(51 14.6209 22.8371)" fill="#3C1F1B"/>
<circle cx="14.6206" cy="22.8372" r="12" transform="rotate(51 14.6206 22.8372)" fill="#3C1F1B"/>
<circle cx="14.6206" cy="22.8372" r="12" transform="rotate(51 14.6206 22.8372)" fill="#F7C64E"/>
<circle cx="14.6209" cy="22.8371" r="10" transform="rotate(51 14.6209 22.8371)" fill="#3C1F1B"/>
<circle cx="14.6209" cy="22.8371" r="10" transform="rotate(51 14.6209 22.8371)" fill="#3C1F1B"/>
<circle cx="14.6209" cy="22.8371" r="10" transform="rotate(51 14.6209 22.8371)" fill="#3C1F1B"/>
<circle cx="14.6206" cy="22.8372" r="8" transform="rotate(51 14.6206 22.8372)" fill="#3C1F1B"/>
<circle cx="14.6206" cy="22.8372" r="8" transform="rotate(51 14.6206 22.8372)" fill="#3C1F1B"/>
<circle cx="14.6206" cy="22.8372" r="8" transform="rotate(51 14.6206 22.8372)" fill="#F7C64E"/>
</g>
<mask id="path-9-inside-1_375_2300" fill="white">
<path fill-rule="evenodd" clip-rule="evenodd" d="M12.9788 29.8554C14.4352 30.1477 16.0001 29.9316 17.3877 29.1305C20.4156 27.3823 21.4531 23.5105 19.7049 20.4826C17.9567 17.4546 14.0849 16.4172 11.057 18.1654C9.20281 19.2359 8.09503 21.1027 7.91623 23.0845L6.63714 24.1577C5.36792 25.2227 5.20237 27.115 6.26737 28.3842L7.83638 30.2541C8.90139 31.5233 10.7937 31.6889 12.0629 30.6239L12.9788 29.8554Z"/>
</mask>
<path fill-rule="evenodd" clip-rule="evenodd" d="M12.9788 29.8554C14.4352 30.1477 16.0001 29.9316 17.3877 29.1305C20.4156 27.3823 21.4531 23.5105 19.7049 20.4826C17.9567 17.4546 14.0849 16.4172 11.057 18.1654C9.20281 19.2359 8.09503 21.1027 7.91623 23.0845L6.63714 24.1577C5.36792 25.2227 5.20237 27.115 6.26737 28.3842L7.83638 30.2541C8.90139 31.5233 10.7937 31.6889 12.0629 30.6239L12.9788 29.8554Z" fill="#3C1F1B"/>
<path d="M12.9788 29.8554L13.1756 28.8749L12.7042 28.7803L12.336 29.0893L12.9788 29.8554ZM7.91623 23.0845L8.55902 23.8505L8.87511 23.5853L8.91219 23.1743L7.91623 23.0845ZM6.63714 24.1577L7.27993 24.9238L6.63714 24.1577ZM6.26737 28.3842L5.50133 29.027L5.50133 29.027L6.26737 28.3842ZM7.83638 30.2541L7.07034 30.8969L7.07034 30.8969L7.83638 30.2541ZM12.0629 30.6239L11.4201 29.8578L11.4201 29.8578L12.0629 30.6239ZM16.8877 28.2644C15.7187 28.9394 14.4028 29.1213 13.1756 28.8749L12.782 30.8358C14.4677 31.1742 16.2815 30.9238 17.8877 29.9965L16.8877 28.2644ZM18.8389 20.9826C20.3109 23.5322 19.4373 26.7924 16.8877 28.2644L17.8877 29.9965C21.3939 27.9722 22.5953 23.4888 20.5709 19.9826L18.8389 20.9826ZM11.557 19.0314C14.1066 17.5593 17.3668 18.4329 18.8389 20.9826L20.5709 19.9826C18.5466 16.4763 14.0632 15.275 10.557 17.2993L11.557 19.0314ZM8.91219 23.1743C9.06301 21.5026 9.99641 19.9324 11.557 19.0314L10.557 17.2993C8.40921 18.5394 7.12705 20.7028 6.92028 22.9946L8.91219 23.1743ZM7.27993 24.9238L8.55902 23.8505L7.27344 22.3184L5.99436 23.3917L7.27993 24.9238ZM7.03342 27.7414C6.32341 26.8953 6.43378 25.6338 7.27993 24.9238L5.99436 23.3917C4.30206 24.8117 4.08132 27.3347 5.50133 29.027L7.03342 27.7414ZM8.60243 29.6113L7.03342 27.7414L5.50133 29.027L7.07034 30.8969L8.60243 29.6113ZM11.4201 29.8578C10.5739 30.5678 9.31243 30.4575 8.60243 29.6113L7.07034 30.8969C8.49035 32.5892 11.0134 32.8099 12.7057 31.3899L11.4201 29.8578ZM12.336 29.0893L11.4201 29.8578L12.7057 31.3899L13.6216 30.6214L12.336 29.0893Z" fill="#3C1F1B" mask="url(#path-9-inside-1_375_2300)"/>
</svg>
