<svg width="42" height="38" viewBox="0 0 42 38" fill="none" xmlns="http://www.w3.org/2000/svg">
<path fill-rule="evenodd" clip-rule="evenodd" d="M2 2H9.84766V4.06058H3.85352V8.6666H2V2ZM2 29.3333V36H9.84766V33.9394H3.85352V29.3333H2ZM38.1462 29.3333V33.9394H32.152V36H40V29.3333H38.1462ZM40 8.6666V2H32.152V4.06058H38.1462V8.6666H40Z" fill="#F7C64E"/>
<path d="M9.84766 2H11.3477V0.5H9.84766V2ZM2 2V0.5H0.5V2H2ZM9.84766 4.06058V5.56058H11.3477V4.06058H9.84766ZM3.85352 4.06058V2.56058H2.35352V4.06058H3.85352ZM3.85352 8.6666V10.1666H5.35352V8.6666H3.85352ZM2 8.6666H0.5V10.1666H2V8.6666ZM2 29.3333V27.8333H0.5V29.3333H2ZM2 36H0.5V37.5H2V36ZM9.84766 36V37.5H11.3477V36H9.84766ZM9.84766 33.9394H11.3477V32.4394H9.84766V33.9394ZM3.85352 33.9394H2.35352V35.4394H3.85352V33.9394ZM3.85352 29.3333H5.35352V27.8333H3.85352V29.3333ZM38.1462 33.9394V35.4394H39.6462V33.9394H38.1462ZM38.1462 29.3333V27.8333H36.6462V29.3333H38.1462ZM32.152 33.9394V32.4394H30.652V33.9394H32.152ZM32.152 36H30.652V37.5H32.152V36ZM40 36V37.5H41.5V36H40ZM40 29.3333H41.5V27.8333H40V29.3333ZM40 2H41.5V0.5H40V2ZM40 8.6666V10.1666H41.5V8.6666H40ZM32.152 2V0.5H30.652V2H32.152ZM32.152 4.06058H30.652V5.56058H32.152V4.06058ZM38.1462 4.06058H39.6462V2.56058H38.1462V4.06058ZM38.1462 8.6666H36.6462V10.1666H38.1462V8.6666ZM9.84766 0.5H2V3.5H9.84766V0.5ZM11.3477 4.06058V2H8.34766V4.06058H11.3477ZM3.85352 5.56058H9.84766V2.56058H3.85352V5.56058ZM5.35352 8.6666V4.06058H2.35352V8.6666H5.35352ZM2 10.1666H3.85352V7.1666H2V10.1666ZM0.5 2V8.6666H3.5V2H0.5ZM0.5 29.3333V36H3.5V29.3333H0.5ZM2 37.5H9.84766V34.5H2V37.5ZM11.3477 36V33.9394H8.34766V36H11.3477ZM9.84766 32.4394H3.85352V35.4394H9.84766V32.4394ZM5.35352 33.9394V29.3333H2.35352V33.9394H5.35352ZM3.85352 27.8333H2V30.8333H3.85352V27.8333ZM39.6462 33.9394V29.3333H36.6462V33.9394H39.6462ZM32.152 35.4394H38.1462V32.4394H32.152V35.4394ZM33.652 36V33.9394H30.652V36H33.652ZM40 34.5H32.152V37.5H40V34.5ZM38.5 29.3333V36H41.5V29.3333H38.5ZM40 27.8333H38.1462V30.8333H40V27.8333ZM38.5 2V8.6666H41.5V2H38.5ZM32.152 3.5H40V0.5H32.152V3.5ZM33.652 4.06058V2H30.652V4.06058H33.652ZM38.1462 2.56058H32.152V5.56058H38.1462V2.56058ZM39.6462 8.6666V4.06058H36.6462V8.6666H39.6462ZM38.1462 10.1666H40V7.1666H38.1462V10.1666Z" fill="#F7C64E"/>
</svg>
