<?xml version="1.0" encoding="UTF-8"?>
<svg id="Layer_1" data-name="Layer 1" xmlns="http://www.w3.org/2000/svg" viewBox="0 0 216 288">
  <defs>
    <style>
      .cls-1 {
        fill: #3c1f1b;
        stroke-width: 0px;
      }
    </style>
  </defs>
  <path class="cls-1" d="M51,253.6c-1.7,0-2.8,1.4-2.8,3.4,0,2.2,1.2,3.5,2.8,3.5,1.2,0,2.8-.9,2.8-3.2.1-1.9-.9-3.7-2.8-3.7Z"/>
  <g>
    <path class="cls-1" d="M0,0v288h216V0H0ZM167.5,219.1h20.9v5.8h-12.5v3.9h11.7v5.7h-11.7v5.3h13.7v5.7h-22.1v-26.4ZM169,212.5l3.3-9.7h2.1l3.3,9.7h-1.9l-.6-1.9h-3.7l-.6,1.9h-1.9ZM183.9,212.5v-9.7h1.8v8h3.9v1.7h-5.7ZM26.5,26.5h163v62.9h-55l55,55v45.2h-45.2l-55-55v55H26.5V26.5ZM157.2,212.5h-1.8v-9.7h1.6l4.3,6.9-.1-6.9h1.8v9.7h-1.6l-4.3-6.8.1,6.8ZM148.9,207.6c0,2.8-1.7,5.1-4.7,5.1-1.2,0-2.4-.3-3.4-1.5-1-1.1-1.3-2.4-1.3-3.6,0-3,2-5.1,4.7-5.1,2.4,0,4.7,1.8,4.7,5.1ZM133,202.8v9.7h-1.8v-9.7h1.8ZM117.9,204.4v-1.7h7.1v1.7h-2.7v8.1h-1.8v-8.1h-2.6ZM93.2,212.5h-1.8v-9.7h1.6l4.3,6.9-.1-6.9h1.8v9.7h-1.6l-4.3-6.8.1,6.8ZM69.5,206.7v1.6h-4.7v2.6h5.5v1.6h-7.3v-9.7h7v1.6h-5.2v2.3h4.7ZM49.8,204.4v-1.7h7.1v1.7h-2.7v8.1h-1.8v-8.1h-2.6ZM37.7,212.5h-1.8v-9.7h1.6l4.3,6.9-.1-6.9h1.8v9.7h-1.6l-4.3-6.8.1,6.8ZM26.5,202.8h1.8v9.7h-1.8v-9.7ZM34,260.7c-.7.8-1.8,1.5-3.4,1.5-2.6,0-4.6-1.9-4.6-5.1s2.1-5.1,4.6-5.1c3,0,3.7,2.3,4,3l-1.8.5c0-.2-.1-.6-.4-1-.2-.3-.7-.9-1.8-.9-1.6,0-2.7,1.3-2.7,3.4s1.2,3.4,2.7,3.4c.9,0,1.5-.4,1.9-1,.3-.4.4-.8.5-1l1.8.8c-.1.3-.4.9-.8,1.5ZM37.4,236.2h-2.5v9.3h-8.4v-26.4h13.2c2.5,0,4.9.1,6.5.8,3.5,1.5,4.6,5.1,4.6,7.6,0,1-.1,3.3-2,5.3-1.1,1.1-2.2,1.5-3.4,2l6.4,10.7h-9.3l-5.1-9.3ZM50.9,262.2c-1.2,0-2.4-.3-3.4-1.5-1-1.1-1.3-2.4-1.3-3.6,0-3,2-5.1,4.7-5.1,2.4,0,4.7,1.8,4.7,5.1,0,2.8-1.7,5.1-4.7,5.1ZM77,261.9h-1.8l.2-8-2.1,8h-1.6l-2.1-8,.2,8h-1.8v-9.7h2.6l1.9,7.2,1.9-7.2h2.6v9.7ZM77.4,245.5h-22.1v-26.4h21v5.8h-12.6v3.9h11.8v5.7h-11.8v5.3h13.7v5.7ZM79,212.6h-1.8v-9.8h3c1.3,0,2.2,0,3,.7.6.5,1.1,1.3,1.1,2.4,0,1.9-1.4,2.5-1.9,2.7l2.2,4h-2.1l-1.9-3.6h-1.6v3.6ZM98.8,261.9h-1.8l.2-8-2.1,8h-1.6l-2.1-8,.2,8h-1.8v-9.7h2.6l1.9,7.2,1.9-7.2h2.6v9.7ZM103.6,242.9c-3.3,3.4-8.6,3.4-10.1,3.4-2,0-4.1-.2-6.2-.8-4.2-1.2-6.2-3.6-7.4-5l6.6-4.1c.8,1.2,1.4,2.1,3.7,2.9,1.1.4,2.4.6,3.7.6.7,0,4-.1,4-2,0-.2,0-1.2-1.5-1.7-.9-.3-5.8-1.2-6.9-1.5-2.4-.6-7.2-2.1-7.2-7.7,0-1.2.3-2.4.7-3.4,1.7-3.9,6.2-5.4,11-5.4,3,0,5.8.6,8,1.7,2,1,3,2,3.9,3l-5.3,4.4c-.4-.5-.9-1.1-2-1.7-1.5-.8-3.6-1-4.9-1-1.4,0-3,.4-3,1.7s1.4,1.6,3.6,2c5.9,1,11.7,2.1,11.7,8.6,0,2.8-1.2,4.7-2.4,6ZM106.8,212.5h-1.8l3.3-9.7h2.1l3.3,9.7h-1.9l-.7-1.9h-3.7l-.6,1.9ZM113.4,261.9h-1.8v-9.7h1.8v9.7ZM132.7,253.9h-2.7v8.1h-1.8v-8.1h-2.6v-1.7h7.1v1.7ZM132.8,242.6c-2.7,2.7-6.5,3.9-10.3,3.9-9.5,0-13.7-7.1-13.7-13.9s4.8-14.4,13.7-14.4c4,0,7.8,1.4,10.6,4.3,1.1,1.2,1.7,2.1,2.2,3.1l-7,3.5c-.7-1.5-2-4.4-5.5-4.4-1.8,0-3,.9-3.6,1.4-2,1.9-2,4.9-2,5.9,0,3.9,1.5,7.7,5.6,7.7s5.1-3.5,5.4-4.4l7.2,3.5c-.7,1.3-1.3,2.5-2.6,3.8ZM151,253.9h-2.7v8.1h-1.8v-8.1h-2.6v-1.7h7.1v1.7ZM150.8,246.5c-3.9,0-7.3-1.3-9.2-3.2-2.6-2.6-2.6-5.5-2.7-8.3v-15.9h8.3v16.5c0,1.1,0,2.3,1,3.2.7.7,1.7,1,2.7,1,1.3,0,2.2-.5,2.7-.9,1-.9,1-2.1,1-3.2v-16.5h8.4v14.1c0,3,0,7-3.1,10-1.9,1.8-5,3.2-9.1,3.2ZM170.3,261.9h-7.3v-9.7h6.9v1.6h-5.1v2.3h4.7v1.6h-4.7v2.6h5.5v1.6ZM189.6,261.9h-7.3v-9.7h6.9v1.6h-5.1v2.3h4.7v1.6h-4.7v2.6h5.5v1.6Z"/>
    <path class="cls-1" d="M82.4,205.8c0-.2,0-.9-.8-1.3-.4-.2-.9-.2-1.9-.2h-.8v3h1.8c.4,0,1.7-.1,1.7-1.5Z"/>
    <path class="cls-1" d="M38.3,224.8h-3.4v6.1h3.5c1.4,0,4-.1,4-3s-2.6-3.1-4.1-3.1Z"/>
    <path class="cls-1" d="M141.4,207.6c0,2.2,1.2,3.5,2.8,3.5,1.2,0,2.8-.9,2.8-3.2.1-2-.8-3.7-2.8-3.7-1.7,0-2.8,1.4-2.8,3.4Z"/>
    <polygon class="cls-1" points="173.4 204.5 172 209 174.7 209 173.4 204.5"/>
    <polygon class="cls-1" points="108 209 110.7 209 109.4 204.5 108 209"/>
  </g>
</svg>