<svg width="252" height="112" viewBox="0 0 252 112" fill="none" xmlns="http://www.w3.org/2000/svg">
<path d="M192.32 22.6482C191.507 21.6383 191.101 20.3201 191.101 18.6937C191.101 17.0921 191.495 15.7699 192.283 14.7269C193.071 13.684 194.182 13.1617 195.617 13.16C196.214 13.1587 196.806 13.2636 197.366 13.4699C197.93 13.685 198.438 14.0239 198.854 14.4616C199.32 14.9588 199.674 15.5507 199.892 16.1971C200.378 17.7168 200.404 19.3461 199.966 20.8805C199.779 21.5131 199.469 22.1028 199.054 22.6159C198.656 23.0987 198.159 23.4901 197.597 23.7638C197.001 24.0494 196.347 24.1928 195.686 24.1828C194.25 24.1828 193.127 23.6787 192.315 22.6705L192.32 22.6482ZM200.056 27.2075H204.063V10.1229H200.056V11.908C199.44 11.3049 198.733 10.8029 197.961 10.4204C197.023 9.97976 195.994 9.76737 194.957 9.80062C193.891 9.79052 192.835 10.0077 191.859 10.4378C190.921 10.8579 190.083 11.4732 189.401 12.2427C188.689 13.0602 188.142 14.0072 187.79 15.0319C187.406 16.1887 187.226 17.4034 187.257 18.6218C187.257 20.0797 187.401 21.3614 187.79 22.4647C188.137 23.4992 188.688 24.4536 189.411 25.2712C190.084 26.0256 190.918 26.6187 191.852 27.0067C192.829 27.4037 193.876 27.6018 194.93 27.5893C195.97 27.6239 196.999 27.3718 197.904 26.8604C198.692 26.3861 199.414 25.811 200.053 25.1497L200.056 27.2075Z" fill="#3c1f1b"/>
<path d="M216.029 48.5762H224.258V62.3139H228.3V48.5762H234.429V45.259H228.3V43.5111C228.3 42.2004 228.621 41.1492 229.264 40.3575C229.571 39.9736 229.963 39.6667 230.409 39.4613C230.855 39.256 231.343 39.1579 231.834 39.1749C232.519 39.1488 233.201 39.2662 233.837 39.5195C234.357 39.7603 234.855 40.0474 235.324 40.3773L237.18 37.5708C236.842 37.3278 236.49 37.0849 236.125 36.8419C235.747 36.5928 235.344 36.385 234.923 36.2221C233.877 35.8209 232.764 35.6232 231.643 35.6394C230.578 35.6239 229.521 35.8414 228.548 36.2766C227.659 36.6774 226.864 37.2612 226.216 37.9898C225.572 38.7259 225.077 39.5796 224.758 40.5038C224.42 41.4819 224.253 42.5109 224.263 43.5458V45.259H216.034V43.5111C216.034 42.2004 216.365 41.1492 217.025 40.3575C217.342 39.9715 217.743 39.664 218.198 39.4588C218.653 39.2537 219.149 39.1565 219.648 39.1749C220.176 39.1618 220.703 39.2228 221.214 39.3559C221.639 39.4821 222.053 39.6404 222.453 39.8294L223.983 36.77C223.367 36.4401 222.72 36.171 222.052 35.9667C221.199 35.7289 220.315 35.6186 219.43 35.6394C218.357 35.6206 217.293 35.8382 216.314 36.2766C215.433 36.6814 214.646 37.2648 214.002 37.9898C213.358 38.7259 212.863 39.5796 212.544 40.5038C212.201 41.4811 212.029 42.51 212.034 43.5458V45.259H208.286V48.5762H212.021V62.3139H216.029V48.5762Z" fill="#3c1f1b"/>
<path d="M251.081 50.3415C250.806 49.3231 250.342 48.3653 249.715 47.5176C249.077 46.6786 248.253 45.9996 247.308 45.5342C246.212 45.0131 245.007 44.7583 243.794 44.7904C242.618 44.7735 241.452 45.0032 240.371 45.4648C239.376 45.8949 238.482 46.5282 237.746 47.3242C237.004 48.136 236.434 49.0899 236.071 50.1283C235.278 52.4624 235.297 54.9963 236.125 57.3181C236.526 58.3956 237.14 59.3814 237.93 60.2164C238.715 61.0363 239.664 61.6817 240.716 62.1105C241.868 62.5732 243.1 62.8024 244.342 62.7849C245.107 62.7881 245.87 62.7049 246.617 62.5369C247.262 62.3945 247.89 62.1868 248.493 61.9171C249.02 61.6783 249.531 61.405 250.022 61.099C250.483 60.8064 250.897 60.5287 251.261 60.261L249.732 57.6007C249.083 58.0517 248.401 58.4536 247.692 58.8032C246.767 59.2227 245.756 59.4222 244.741 59.3858C243.163 59.3858 241.912 58.9544 240.988 58.0916C240.066 57.2295 239.463 56.0803 239.278 54.8314H251.487V54.6108C251.487 54.4918 251.487 54.3628 251.507 54.2116C251.527 54.0604 251.524 53.9314 251.524 53.81V53.5918C251.522 52.4934 251.373 51.4002 251.081 50.3415ZM239.342 52.0001C239.531 50.8678 240.048 49.816 240.83 48.9754C241.207 48.5889 241.661 48.2856 242.163 48.085C242.664 47.8843 243.202 47.7907 243.742 47.8102C244.349 47.7957 244.952 47.9141 245.509 48.1572C245.985 48.3714 246.408 48.6881 246.748 49.0845C247.08 49.4823 247.333 49.9401 247.492 50.4332C247.661 50.9394 247.76 51.4668 247.784 52.0001H239.342Z" fill="#3c1f1b"/>
<path d="M251.081 85.4703C250.806 84.4519 250.342 83.4941 249.715 82.6464C249.077 81.8074 248.253 81.1284 247.308 80.663C246.212 80.1419 245.007 79.8871 243.794 79.9192C242.618 79.9023 241.452 80.132 240.371 80.5936C239.376 81.0237 238.482 81.657 237.746 82.453C237.006 83.2611 236.436 84.2107 236.071 85.2447C235.278 87.5788 235.297 90.1127 236.125 92.4345C236.526 93.5116 237.139 94.4967 237.93 95.3303C238.715 96.151 239.664 96.7972 240.716 97.227C241.868 97.6896 243.1 97.9188 244.342 97.9013C245.107 97.9045 245.87 97.8213 246.617 97.6534C247.262 97.5109 247.89 97.3033 248.493 97.0336C249.02 96.7948 249.531 96.5215 250.022 96.2154C250.483 95.9229 250.896 95.6435 251.261 95.3774L249.732 92.7172C249.083 93.1681 248.401 93.57 247.692 93.9196C246.766 94.338 245.756 94.5373 244.741 94.5022C243.163 94.5022 241.912 94.0708 240.988 93.2081C240.066 92.3459 239.463 91.1967 239.278 89.9478H251.487V89.7272C251.487 89.6057 251.487 89.4792 251.507 89.328C251.527 89.1768 251.524 89.0478 251.524 88.9264V88.7082C251.521 87.6139 251.372 86.525 251.081 85.4703ZM239.342 87.1289C239.531 85.9965 240.048 84.9445 240.83 84.1042C241.207 83.7177 241.661 83.4144 242.163 83.2138C242.664 83.0131 243.202 82.9195 243.742 82.9389C244.349 82.9233 244.953 83.0418 245.509 83.286C245.985 83.5002 246.408 83.8169 246.748 84.2133C247.08 84.6111 247.333 85.0689 247.492 85.562C247.661 86.0682 247.76 86.5956 247.784 87.1289H239.342Z" fill="#3c1f1b"/>
<path d="M128.118 27.1853H132.161V3.57275H128.118V13.3733H117.372V3.57275H113.329V27.1853H117.372V16.9087H128.118V27.1853Z" fill="#3c1f1b"/>
<path d="M149.014 10.1229V11.9079C148.399 11.3049 147.692 10.8028 146.92 10.4204C145.98 9.97995 144.95 9.76759 143.913 9.80057C142.848 9.79022 141.793 10.0074 140.818 10.4377C139.879 10.8572 139.041 11.4726 138.359 12.2426C137.642 13.0582 137.089 14.0055 136.733 15.0318C136.333 16.1857 136.136 17.4004 136.151 18.6218C136.126 19.9265 136.323 21.2259 136.733 22.4647C137.08 23.4996 137.631 24.4542 138.354 25.2712C139.026 26.0268 139.861 26.6201 140.796 27.0067C141.773 27.4037 142.819 27.6018 143.874 27.5893C144.913 27.6236 145.942 27.3715 146.848 26.8604C147.636 26.3861 148.358 25.811 148.997 25.1497V27.1901H153.004V10.1229H149.014ZM148.922 20.8556C148.736 21.4881 148.427 22.0778 148.013 22.5911C147.615 23.0738 147.118 23.4653 146.555 23.739C145.959 24.0243 145.304 24.1677 144.642 24.158C143.21 24.158 142.087 23.6539 141.274 22.6457C140.461 21.6374 140.054 20.3193 140.052 18.6912C140.052 17.0896 140.447 15.7673 141.237 14.7244C142.027 13.6814 143.138 13.1591 144.57 13.1575C145.162 13.1574 145.75 13.2623 146.305 13.4674C146.869 13.6827 147.377 14.0216 147.792 14.4591C148.258 14.9569 148.612 15.5487 148.831 16.1946C149.314 17.7148 149.339 19.3437 148.903 20.8779L148.922 20.8556Z" fill="#3c1f1b"/>
<path d="M233.691 0.949585V11.9179C233.076 11.3148 232.369 10.8127 231.597 10.4303C230.658 9.99077 229.629 9.77844 228.593 9.81048C227.527 9.80001 226.47 10.0181 225.495 10.4501C224.557 10.8693 223.719 11.4838 223.036 12.2526C222.322 13.0697 221.772 14.0166 221.416 15.0417C221.015 16.1947 220.818 17.4086 220.833 18.6292C220.809 19.9347 221.006 21.2349 221.416 22.4746C221.763 23.5088 222.314 24.4631 223.036 25.2811C223.711 26.0339 224.545 26.6268 225.478 27.0166C226.455 27.4125 227.502 27.6105 228.556 27.5992C229.595 27.6338 230.624 27.3816 231.53 26.8703C232.318 26.3951 233.04 25.8192 233.679 25.1571V27.1976H237.724V0.949585H233.691ZM233.602 20.863C233.415 21.4959 233.105 22.0857 232.69 22.5985C232.293 23.0819 231.796 23.4735 231.233 23.7464C230.637 24.032 229.983 24.1754 229.322 24.1654C227.888 24.1654 226.764 23.6613 225.951 22.6531C225.138 21.6448 224.732 20.3275 224.732 18.7011C224.732 17.0979 225.126 15.7756 225.914 14.7343C226.702 13.693 227.813 13.1707 229.248 13.1674C229.844 13.1652 230.437 13.2693 230.997 13.4748C231.561 13.6899 232.069 14.0288 232.484 14.4665C232.951 14.9641 233.305 15.5559 233.523 16.202C233.794 17.0125 233.923 17.8639 233.905 18.7185C233.911 19.4452 233.809 20.1688 233.602 20.8655V20.863Z" fill="#3c1f1b"/>
<path d="M122.145 52.3648C124.087 52.1218 125.656 51.4177 126.854 50.2524C128.052 49.0872 128.653 47.5079 128.656 45.5146C128.656 43.4022 127.958 41.7386 126.562 40.5238C125.166 39.309 123.183 38.7015 120.613 38.7015H113.329V62.3141H117.372V52.4392H117.481L125.085 62.3141H129.856L122.145 52.3648ZM117.372 49.4864V42.0485H120.432C121.718 42.0485 122.75 42.3791 123.528 43.0403C124.306 43.7014 124.695 44.6105 124.693 45.7674C124.693 46.9327 124.305 47.8418 123.528 48.4946C122.751 49.1475 121.622 49.4781 120.14 49.4864H117.372Z" fill="#3c1f1b"/>
<path d="M144.03 45.259V47.0441C143.415 46.4402 142.708 45.9381 141.935 45.5565C140.996 45.1161 139.966 44.9037 138.929 44.9367C137.863 44.9271 136.808 45.1452 135.833 45.5763C134.895 45.9958 134.056 46.6112 133.375 47.3812C132.658 48.1958 132.108 49.1424 131.754 50.1679C131.352 51.3216 131.154 52.5364 131.169 53.7579C131.145 55.0627 131.343 56.3621 131.754 57.6008C132.1 58.6359 132.651 59.5906 133.375 60.4073C134.047 61.1614 134.881 61.7545 135.814 62.1428C136.791 62.5394 137.837 62.7375 138.892 62.7254C139.936 62.762 140.97 62.5098 141.881 61.9965C142.668 61.5214 143.39 60.9464 144.03 60.2858V62.3263H148.035V45.259H144.03ZM143.938 55.9893C143.751 56.6218 143.442 57.2114 143.028 57.7247C142.621 58.2237 142.107 58.6239 141.523 58.8953C140.939 59.1666 140.301 59.3022 139.658 59.2916C138.225 59.2916 137.102 58.7875 136.289 57.7793C135.476 56.771 135.069 55.4488 135.067 53.8124C135.067 52.2075 135.462 50.8853 136.252 49.8456C137.042 48.806 138.153 48.2837 139.586 48.2787C140.178 48.2789 140.765 48.3838 141.321 48.5886C141.884 48.8036 142.393 49.1426 142.808 49.5804C143.274 50.0782 143.628 50.6699 143.846 51.3158C144.117 52.1257 144.246 52.9761 144.228 53.8298C144.239 54.56 144.141 55.2879 143.938 55.9893Z" fill="#3c1f1b"/>
<path d="M164.74 36.0759V47.0442C164.125 46.4403 163.419 45.9382 162.646 45.5566C161.707 45.1162 160.676 44.9038 159.64 44.9368C158.574 44.9265 157.519 45.1437 156.544 45.574C155.605 45.9934 154.767 46.6088 154.085 47.3789C153.369 48.1935 152.818 49.1401 152.464 50.1656C152.064 51.3194 151.867 52.5342 151.882 53.7556C151.858 55.0602 152.054 56.3596 152.464 57.5984C152.81 58.6336 153.362 59.5882 154.085 60.405C154.758 61.1596 155.593 61.7528 156.527 62.1404C157.503 62.5371 158.549 62.7352 159.602 62.7231C160.647 62.7596 161.681 62.5074 162.591 61.9942C163.378 61.519 164.101 60.944 164.74 60.2835V62.3239H168.783V36.0759H164.74ZM164.649 55.9919C164.462 56.6244 164.153 57.2141 163.739 57.7273C163.332 58.2263 162.817 58.6265 162.233 58.8979C161.65 59.1693 161.012 59.3048 160.368 59.2942C158.936 59.2942 157.813 58.7901 157 57.7819C156.187 56.7737 155.78 55.4514 155.778 53.8151C155.778 52.2102 156.173 50.8879 156.963 49.8482C157.753 48.8086 158.864 48.2863 160.296 48.2813C160.888 48.2815 161.476 48.3864 162.031 48.5912C162.595 48.8062 163.103 49.1452 163.518 49.583C163.984 50.0808 164.338 50.6725 164.557 51.3184C165.04 52.8386 165.065 54.4675 164.629 56.0018L164.649 55.9919Z" fill="#3c1f1b"/>
<path d="M186.199 57.5042C185.981 57.648 185.726 57.8265 185.433 58.0323C185.118 58.2511 184.786 58.4459 184.442 58.6149C184.057 58.805 183.654 58.9577 183.24 59.0711C182.777 59.1956 182.299 59.2565 181.82 59.2521C181.116 59.2572 180.418 59.1276 179.763 58.8703C179.126 58.6211 178.549 58.2419 178.067 57.7571C177.571 57.2591 177.175 56.6698 176.902 56.0216C176.599 55.2819 176.451 54.4879 176.466 53.6886C176.452 52.924 176.595 52.1646 176.885 51.4573C177.137 50.8454 177.508 50.2895 177.976 49.8215C178.444 49.3535 179 48.9826 179.611 48.7301C180.207 48.488 180.844 48.3642 181.488 48.3656C182.356 48.3308 183.221 48.4935 184.018 48.8417C184.662 49.1557 185.191 49.4226 185.604 49.6425L187.389 46.7987C186.626 46.289 185.822 45.8444 184.985 45.4699C183.845 44.9878 182.615 44.7578 181.378 44.7955C180.116 44.7766 178.863 45.0189 177.698 45.507C176.655 45.9416 175.712 46.5863 174.929 47.4009C174.146 48.2156 173.538 49.1829 173.145 50.2424C172.728 51.3424 172.518 52.5099 172.525 53.6861C172.511 54.9438 172.734 56.1929 173.182 57.3678C173.586 58.4411 174.209 59.4183 175.012 60.2371C175.815 61.0558 176.779 61.6982 177.844 62.1231C179.72 62.8455 181.769 62.9913 183.728 62.542C184.35 62.388 184.954 62.1677 185.53 61.8851C186.028 61.6425 186.503 61.3563 186.95 61.0297C187.363 60.7239 187.74 60.4264 188.08 60.1372L186.199 57.5042Z" fill="#3c1f1b"/>
<path d="M195.369 36.0759H191.327V62.3115H195.369V36.0759Z" fill="#3c1f1b"/>
<path d="M204.564 45.259H200.521V62.3114H204.564V45.259Z" fill="#3c1f1b"/>
<path d="M204.396 41.4509C204.666 41.2052 204.879 40.9036 205.021 40.567C205.162 40.2305 205.229 39.8671 205.216 39.5022C205.226 39.1428 205.158 38.7854 205.017 38.4549C204.875 38.1244 204.663 37.8287 204.396 37.5882C203.888 37.1094 203.217 36.8432 202.52 36.8445C202.173 36.8389 201.829 36.9017 201.507 37.0293C201.185 37.1569 200.892 37.3469 200.643 37.5882C200.385 37.834 200.182 38.1316 200.047 38.4615C199.912 38.7913 199.848 39.146 199.86 39.5022C199.846 39.8639 199.908 40.2246 200.043 40.5605C200.178 40.8964 200.383 41.1998 200.643 41.4509C200.892 41.6926 201.185 41.8827 201.507 42.0104C201.829 42.1381 202.173 42.2007 202.52 42.1947C203.217 42.198 203.89 41.9315 204.396 41.4509Z" fill="#3c1f1b"/>
<path d="M117.372 73.8278H113.329V97.4403H117.372V73.8278Z" fill="#3c1f1b"/>
<path d="M122.279 97.4427H126.286V88.1852C126.293 87.4523 126.422 86.7258 126.668 86.0356C126.866 85.4826 127.176 84.9763 127.578 84.5481C127.935 84.1723 128.371 83.8794 128.854 83.6902C129.325 83.5093 129.825 83.4168 130.329 83.4175C131.237 83.3763 132.126 83.6902 132.807 84.2927C133.44 84.8745 133.756 85.7613 133.756 86.953V97.4427H137.762V85.8175C137.762 83.9993 137.197 82.5663 136.069 81.5184C134.94 80.4705 133.465 79.9482 131.642 79.9515C131.008 79.9391 130.375 80.0227 129.766 80.1995C129.25 80.3564 128.758 80.586 128.306 80.8813C127.89 81.1531 127.505 81.4708 127.159 81.8283C126.836 82.1586 126.544 82.518 126.286 82.9018V80.3879H122.279V97.4427Z" fill="#3c1f1b"/>
<path d="M141.195 95.4369C142.183 96.0974 143.228 96.669 144.318 97.1451C145.566 97.6812 146.913 97.9481 148.271 97.9285C150.254 97.9285 151.814 97.4327 152.953 96.441C153.504 95.9631 153.941 95.3685 154.234 94.7004C154.527 94.0323 154.667 93.3074 154.645 92.5783C154.663 91.99 154.55 91.4052 154.314 90.8661C154.077 90.3271 153.724 89.8474 153.28 89.4618C152.831 89.0734 152.33 88.7488 151.793 88.4974C151.233 88.2296 150.637 87.9743 150.006 87.7313L147.966 86.9305C147.116 86.5908 146.541 86.2735 146.231 85.9834C146.076 85.8255 145.956 85.6371 145.878 85.43C145.799 85.223 145.765 85.0019 145.777 84.781C145.77 84.5311 145.828 84.2835 145.946 84.063C146.064 83.8425 146.237 83.6567 146.449 83.524C146.931 83.2103 147.498 83.0512 148.073 83.0678C148.897 83.0633 149.713 83.2244 150.474 83.5414C151.114 83.8011 151.735 84.1051 152.333 84.4512L153.82 81.8282C153.021 81.2716 152.158 80.813 151.25 80.4621C150.169 80.0818 149.027 79.9028 147.882 79.934C147.07 79.9233 146.263 80.0525 145.495 80.3158C144.819 80.5486 144.19 80.9004 143.639 81.3546C143.123 81.7831 142.707 82.3175 142.417 82.9215C142.127 83.5242 141.978 84.1844 141.98 84.8529C141.967 85.4801 142.073 86.1042 142.29 86.6925C142.488 87.2028 142.778 87.6725 143.145 88.0784C143.527 88.4937 143.969 88.8497 144.456 89.1346C145.003 89.4565 145.576 89.7311 146.169 89.9552L148.065 90.6841C148.77 90.9351 149.453 91.2462 150.105 91.6138C150.331 91.7502 150.516 91.9464 150.638 92.1809C150.76 92.4154 150.815 92.679 150.796 92.9427C150.814 93.2072 150.761 93.4718 150.643 93.7089C150.524 93.946 150.345 94.1471 150.122 94.2915C149.674 94.5815 149.034 94.7278 148.209 94.7278C147.673 94.7313 147.14 94.6578 146.625 94.5096C145.673 94.2317 144.766 93.821 143.929 93.2898L142.818 92.5783L141.195 95.4369Z" fill="#3c1f1b"/>
<path d="M156.314 83.705H160.073V91.2469C160.064 92.1387 160.206 93.0256 160.492 93.87C160.76 94.6544 161.188 95.3746 161.749 95.9848C162.318 96.6 163.014 97.0846 163.789 97.4054C165.685 98.1167 167.78 98.084 169.653 97.3137C170.388 96.9769 171.096 96.5805 171.767 96.1286L170.347 93.3246C169.917 93.5763 169.473 93.8015 169.016 93.9989C168.446 94.2384 167.832 94.3558 167.214 94.3435C166.786 94.3642 166.359 94.2972 165.957 94.1468C165.556 93.9963 165.19 93.7654 164.882 93.4684C164.3 92.8866 164.008 91.9155 164.007 90.5552V83.705H170.451V80.3877H164.007V74.1896H160.073V80.3877H156.314V83.705Z" fill="#3c1f1b"/>
<path d="M179.044 80.3878H175.002V97.4402H179.044V80.3878Z" fill="#3c1f1b"/>
<path d="M179.18 76.5797C179.45 76.3336 179.662 76.0319 179.803 75.6954C179.945 75.3589 180.011 74.9957 179.998 74.631C180.008 74.2718 179.941 73.9145 179.8 73.584C179.658 73.2535 179.447 72.9577 179.18 72.717C178.673 72.2382 178.001 71.972 177.304 71.9733C176.958 71.9675 176.614 72.0303 176.292 72.1579C175.97 72.2856 175.676 72.4756 175.428 72.717C175.169 72.9626 174.966 73.2602 174.831 73.5901C174.696 73.92 174.632 74.2748 174.644 74.631C174.63 74.9927 174.693 75.3533 174.828 75.6891C174.963 76.0249 175.167 76.3284 175.428 76.5797C175.676 76.8216 175.969 77.0119 176.291 77.1396C176.613 77.2672 176.957 77.3297 177.304 77.3235C178.002 77.3265 178.674 77.0601 179.18 76.5797Z" fill="#3c1f1b"/>
<path d="M182.913 83.705H186.673V91.2469C186.663 92.1387 186.805 93.0256 187.091 93.87C187.358 94.6548 187.786 95.3751 188.348 95.9848C188.918 96.6 189.613 97.0846 190.388 97.4054C192.284 98.1167 194.379 98.084 196.252 97.3137C196.988 96.9769 197.695 96.5805 198.366 96.1286L196.946 93.3246C196.516 93.5763 196.072 93.8015 195.615 93.9989C195.045 94.2384 194.431 94.3558 193.813 94.3435C193.385 94.3642 192.958 94.2972 192.557 94.1468C192.156 93.9963 191.789 93.7654 191.481 93.4684C190.898 92.8866 190.606 91.9155 190.606 90.5552V83.705H197.05V80.3877H190.606V74.1896H186.673V80.3877H182.913V83.705Z" fill="#3c1f1b"/>
<path d="M200.743 90.2256C200.725 91.3194 200.91 92.4071 201.288 93.4337C201.623 94.3346 202.145 95.1542 202.82 95.8386C203.497 96.5082 204.31 97.024 205.204 97.351C206.202 97.714 207.257 97.893 208.319 97.879C210.633 97.879 212.478 97.2047 213.856 95.856C215.234 94.5072 215.927 92.6304 215.933 90.2256V80.3878H211.925V90.2256C211.925 91.5371 211.616 92.566 210.996 93.3048C210.376 94.0436 209.484 94.418 208.319 94.418C207.154 94.418 206.297 94.0461 205.677 93.3048C205.058 92.5635 204.748 91.5371 204.748 90.2256V80.3878H200.743V90.2256Z" fill="#3c1f1b"/>
<path d="M218.902 83.705H222.662V91.2469C222.653 92.1387 222.794 93.0256 223.081 93.87C223.348 94.6548 223.776 95.3751 224.338 95.9848C224.907 96.6 225.603 97.0846 226.377 97.4054C228.274 98.1167 230.369 98.084 232.242 97.3137C232.977 96.9769 233.684 96.5805 234.356 96.1286L232.936 93.3246C232.506 93.5763 232.062 93.8015 231.605 93.9989C231.035 94.2384 230.421 94.3558 229.803 94.3435C229.375 94.3642 228.947 94.2972 228.546 94.1468C228.145 93.9963 227.779 93.7654 227.47 93.4684C226.889 92.8866 226.597 91.9155 226.596 90.5552V83.705H233.04V80.3877H226.596V74.1896H222.662V80.3877H218.902V83.705Z" fill="#3c1f1b"/>
<path d="M166.656 9.80306C165.621 9.7641 164.613 10.1377 163.853 10.8419C163.084 11.5882 162.443 12.4559 161.957 13.4104V10.1229H157.914V27.1777H161.957V18.3292C161.948 17.6523 162.066 16.9797 162.304 16.3458C162.512 15.7862 162.828 15.2726 163.233 14.8335C163.614 14.4259 164.072 14.0981 164.581 13.8691C165.084 13.6395 165.63 13.5211 166.182 13.522C166.501 13.523 166.819 13.5537 167.132 13.6137L167.813 13.7426L168.396 10.0411C167.83 9.87758 167.244 9.7974 166.656 9.80306Z" fill="#3c1f1b"/>
<path d="M217.705 9.80571C217.192 9.78609 216.68 9.86773 216.199 10.046C215.717 10.2242 215.276 10.4956 214.899 10.8445C214.131 11.5908 213.491 12.4586 213.005 13.413V10.1355H208.961V27.1878H213.005V18.3344C212.996 17.6576 213.113 16.985 213.35 16.351C213.558 15.7911 213.874 15.2773 214.279 14.8386C214.66 14.4301 215.119 14.1014 215.628 13.8717C216.131 13.6428 216.678 13.5253 217.231 13.5271C217.549 13.5274 217.866 13.5573 218.178 13.6163L218.862 13.7453L219.442 10.0437C218.878 9.88022 218.292 9.80004 217.705 9.80571Z" fill="#3c1f1b"/>
<path d="M186.228 10.1305H182.112L178.141 20.5533L174.024 10.1305H169.799L177.078 27.2374H178.915L186.228 10.1305Z" fill="#3c1f1b"/>
<path d="M94.5747 13.5568L94.4681 3.5802H0.318356L0.206821 13.5592C-0.467323 32.0273 1.59229 48.6557 6.32865 62.9809C10.1158 74.4401 15.618 84.4613 22.6866 92.7668C34.6923 106.899 47.2482 111.21 47.3746 111.252H47.4168C47.5407 111.21 60.1289 106.856 72.1073 92.7644C79.166 84.4588 84.6682 74.4376 88.4652 62.976C93.1991 48.6508 95.2588 32.0248 94.5871 13.5592L94.5747 13.5568ZM62.1687 85.9885C54.8349 93.9494 48.2099 97.3163 47.4787 97.6733L47.3945 97.7154L47.3102 97.6708C46.3833 97.175 38.006 92.6329 29.6362 81.682C24.4587 74.9062 17.6082 63.2487 14.3787 46.1889L14.2821 45.6757L62.3 85.8398L62.1687 85.9885ZM77.6368 59.3711C75.6806 65.2667 73.0175 70.9035 69.7057 76.1582L69.5917 76.3392L69.4281 76.2029L12.5248 28.601V28.5167C12.4852 27.0043 12.4703 25.487 12.4852 24.0044V15.6468H25.5467L25.5963 15.6889L77.6789 59.2521L77.6368 59.3711ZM80.9679 46.0178L80.9134 46.3376L80.6655 46.1294L44.2319 15.6344H82.2839V24.0069C82.5977 31.3696 82.1567 38.745 80.9679 46.0178Z" fill="#3c1f1b"/>
</svg>
